# xmcd
#
# Track frame offsets:
#	150
#	13643
#	26600
#	36775
#	70763
#	84603
#	116787
#	134465
#	154694
#	179790
#	189020
#	207980
#	247368
#	259155
#
# Disc length: 3683 seconds
#
# Revision: 1
# Processed by: cddbd v1.5.1PL0 Copyright (c) Steve Scherf et al.
# Submitted via: audiograbber 1.83.01
#
DISCID=c80e610e
DTITLE=Dead Can Dance - Unreleased Tracks Vol. 3
DYEAR=1900
DGENRE=
TTITLE0=Frontier (1979)
TTITLE1=The Captive Heart (1993)
TTITLE2=Awakening
TTITLE3=Sambatiki
TTITLE4=Happy Time
TTITLE5=Bylar
TTITLE6=Black Stream
TTITLE7=Waves Become Wings
TTITLE8=Youth
TTITLE9=Dream Song
TTITLE10=Jungabya
TTITLE11=The Protagonist
TTITLE12=Lament
TTITLE13=Dreams Made Flesh
EXTD=
EXTT0=
EXTT1=
EXTT2=
EXTT3=
EXTT4=
EXTT5=
EXTT6=
EXTT7=
EXTT8=
EXTT9=
EXTT10=
EXTT11=
EXTT12=
EXTT13=
PLAYORDER=
